<svg width="70" height="70" fill="none" xmlns="http://www.w3.org/2000/svg"><path d="M17.223 45.667H3V3h14.223v42.667Zm0-3.556h5.76a7.112 7.112 0 0 1 6.721 4.836c1.316 3.875 2.667 8.604 3.947 13.937A7.822 7.822 0 0 0 41.297 67h.177a8.108 8.108 0 0 0 8.143-7.929c.141-4.472.01-8.948-.39-13.404h10.667a7.112 7.112 0 0 0 6.898-8.818l-5.76-23.182A14.221 14.221 0 0 0 47.235 3H32.3a33.676 33.676 0 0 0-15.077 3.556V42.11Z" stroke="#1D35E1" stroke-width="6" stroke-linecap="round" stroke-linejoin="round"/></svg>