<svg width="70" height="70" fill="none" xmlns="http://www.w3.org/2000/svg"><path d="M17.215 67H3V24.334h14.215V67Zm0-3.556A33.642 33.642 0 0 0 32.283 67H47.21A14.212 14.212 0 0 0 61 56.333l5.756-23.04a7.114 7.114 0 0 0-3.738-8.235 7.105 7.105 0 0 0-3.156-.724H49.2c.412-4.456.555-8.932.426-13.405A8.108 8.108 0 0 0 41.452 3h-.177a7.816 7.816 0 0 0-7.641 6.116c-1.28 5.333-2.63 10.062-3.945 13.938a7.111 7.111 0 0 1-6.716 4.835h-5.758v35.555Z" stroke="#E1E7FF" stroke-width="6" stroke-linecap="round" stroke-linejoin="round"/></svg>