<svg width="176" height="47" fill="none" xmlns="http://www.w3.org/2000/svg"><path d="M24.093 9.667V32.58h-4.186V13.299H7.995v19.28H3.756V9.668h20.337ZM45.449 23.82c0 5.448-3.756 8.973-8.907 8.973-2.254 0-4.186-.748-5.635-2.35v8.439H26.83V15.115h3.917v2.296c1.396-1.655 3.435-2.51 5.796-2.51 5.15 0 8.907 3.525 8.907 8.92Zm-4.186 0c0-3.31-2.253-5.447-5.204-5.447-2.952 0-5.205 2.136-5.205 5.447 0 3.312 2.253 5.448 5.205 5.448 2.95 0 5.204-2.083 5.204-5.448Z" fill="#1D1D1B"/><path d="M44.751 23.82c0-5.234 3.917-8.919 9.337-8.919 5.473 0 9.336 3.685 9.336 8.92 0 5.233-3.917 8.972-9.336 8.972-5.42 0-9.337-3.738-9.337-8.973Zm14.542 0c0-3.31-2.254-5.447-5.205-5.447s-5.205 2.136-5.205 5.447c0 3.312 2.254 5.448 5.205 5.448 2.951.054 5.205-2.083 5.205-5.448Zm33.912 1.763h-3.166v6.997h-4.132V15.115h4.132v7.05h3.273l5.151-7.05h4.4L96.532 23.5l6.761 9.08h-4.83l-5.258-6.997Z" fill="#1D1D1B"/><path d="M116.6 18.586h-6.171V32.58h-4.078V18.586h-6.171v-3.471h16.42v3.471Z" fill="#1D1D1B"/><path d="M116.278 15.115h4.132v11.483l9.658-11.483h3.756V32.58h-4.131V21.043l-9.605 11.537h-3.81V15.115Zm35.737 12.551c0 3.098-2.308 4.914-7.03 4.914h-8.907V15.115h8.585c4.293 0 6.815 1.655 6.815 4.54 0 1.816-1.019 3.15-2.683 3.845 2.146.64 3.22 2.03 3.22 4.166Zm-12.074-5.234h4.293c2.093 0 3.166-.748 3.166-2.19s-1.073-2.136-3.166-2.136h-4.293v4.326Zm8.103 4.967c0-1.549-1.02-2.297-3.273-2.297h-4.83v4.487h4.722c2.2 0 3.381-.695 3.381-2.19Z" fill="#1D1D1B"/><path d="M156.254 44.917c2.039-2.777 3.058-6.462 3.058-11.216 0-5.501 1.932-8.812 5.903-9.987-3.917-1.175-5.903-4.487-5.903-9.988 0-4.7-1.019-8.439-3.058-11.216h6.224c2.039 2.724 3.059 6.463 3.059 11.216 0 4.86 1.663 7.317 4.936 7.317v5.395c-3.273 0-4.936 2.456-4.936 7.317 0 4.7-1.02 8.438-3.059 11.215l-6.224-.053Z" fill="#FF71E8"/><path d="M75.766 9.667H71.58L61.224 32.58h4.4l7.996-18.64 4.346 9.987h-4.83l-1.395 3.365h7.62l.858 1.923h-9.282l-1.45 3.365h16.636L75.766 9.667Z" fill="#1D1D1B"/></svg>