<svg width="48" height="48" fill="none" xmlns="http://www.w3.org/2000/svg"><path d="M48 24c0 13.255-10.745 24-24 24S0 37.255 0 24 10.745 0 24 0s24 10.745 24 24Z" fill="#E1E7FF"/><path d="M22.14 8.717c.665-1.688 3.055-1.688 3.72 0l3.478 8.818a2 2 0 0 0 1.127 1.127l8.818 3.478c1.688.665 1.688 3.055 0 3.72l-8.818 3.478a2 2 0 0 0-1.127 1.127l-3.478 8.818c-.665 1.688-3.055 1.688-3.72 0l-3.478-8.818a2 2 0 0 0-1.127-1.127L8.717 25.86c-1.688-.665-1.688-3.055 0-3.72l8.818-3.478a2 2 0 0 0 1.127-1.127l3.478-8.818Z" fill="#1D35E1"/></svg>