<svg width="64" height="64" viewBox="0 0 64 64" fill="none" xmlns="http://www.w3.org/2000/svg">
<circle cx="32" cy="32" r="32" fill="#E1E7FF"/>
<path d="M36.3882 16.7044C36.7799 17.1555 37 17.7673 37 18.4052C37 19.0431 36.7799 19.6549 36.3882 20.1061L26.0441 32.0145L36.3882 43.923C36.7688 44.3767 36.9795 44.9844 36.9747 45.6152C36.9699 46.2459 36.7502 46.8493 36.3627 47.2954C35.9753 47.7414 35.4511 47.9944 34.9032 47.9999C34.3553 48.0054 33.8274 47.7629 33.4333 47.3247L21.6118 33.7154C21.2201 33.2642 21 32.6524 21 32.0145C21 31.3766 21.2201 30.7648 21.6118 30.3137L33.4333 16.7044C33.8252 16.2534 34.3566 16 34.9107 16C35.4649 16 35.9963 16.2534 36.3882 16.7044Z" fill="#FF71E8"/>
</svg>
