<svg width="70" height="70" viewBox="0 0 70 70" fill="none" xmlns="http://www.w3.org/2000/svg">
<path d="M17.2234 45.6666H3V3.00002H17.2234V45.6666ZM17.2234 42.1111H22.9839C24.4688 42.1147 25.9153 42.5829 27.1205 43.4501C28.3258 44.3173 29.2294 45.54 29.7045 46.9466C31.0202 50.8222 32.3714 55.551 33.6515 60.8844C34.0399 62.6214 35.0091 64.174 36.399 65.2858C37.789 66.3977 39.5166 67.0023 41.2966 66.9999H41.4744C43.6003 67.0097 45.645 66.1842 47.1681 64.7012C48.6912 63.2182 49.5707 61.1963 49.6173 59.071C49.758 54.5991 49.6274 50.1227 49.2262 45.6666H59.8938C60.9725 45.6658 62.0369 45.4196 63.0064 44.9467C63.9759 44.4738 64.8251 43.7865 65.4897 42.9369C66.1544 42.0874 66.617 41.0977 66.8427 40.043C67.0683 38.9882 67.051 37.896 66.7921 36.8489L61.0316 13.6667C60.2423 10.6096 58.458 7.90218 55.96 5.97094C53.4621 4.0397 50.3925 2.99448 47.2349 3.00002H32.3003C27.0666 2.99757 21.9044 4.21496 17.2234 6.55557V6.55557V42.1111Z" stroke="#1D35E1" stroke-width="6" stroke-linecap="round" stroke-linejoin="round"/>
</svg>
