<svg width="70" height="70" viewBox="0 0 70 70" fill="none" xmlns="http://www.w3.org/2000/svg">
<path d="M17.2153 67H3V24.3335H17.2153V67ZM17.2153 63.4444C21.8936 65.785 27.0528 67.0024 32.2835 67H47.2095C50.3653 67.0055 53.4331 65.9603 55.9297 64.0291C58.4262 62.0978 60.2094 59.3904 60.9983 56.3334L66.7555 33.2935C67.0399 32.237 67.0767 31.1291 66.8632 30.056C66.6496 28.983 66.1915 27.9737 65.5244 27.1067C64.8573 26.2397 63.9992 25.5384 63.0169 25.0575C62.0347 24.5765 60.9547 24.3287 59.8611 24.3335H49.1997C49.6125 19.8782 49.7549 15.4018 49.6261 10.9292C49.5795 8.79776 48.6955 6.77052 47.1656 5.28649C45.6358 3.80246 43.5831 2.98112 41.4523 3.00033H41.2746C39.4957 2.9979 37.769 3.60254 36.3799 4.71441C34.9907 5.82627 34.0221 7.37888 33.6339 9.11585C32.3546 14.4492 31.0041 19.178 29.6892 23.0536C29.2143 24.4602 28.3113 25.6829 27.1067 26.5501C25.9021 27.4173 24.4565 27.8855 22.9725 27.8891H17.2153V63.4444Z" stroke="#E1E7FF" stroke-width="6" stroke-linecap="round" stroke-linejoin="round"/>
</svg>
