<svg width="48" height="48" viewBox="0 0 48 48" fill="none" xmlns="http://www.w3.org/2000/svg">
<path d="M48 24C48 37.2548 37.2548 48 24 48C10.7452 48 0 37.2548 0 24C0 10.7452 10.7452 0 24 0C37.2548 0 48 10.7452 48 24Z" fill="#E1E7FF"/>
<path d="M22.1395 8.71743C22.8053 7.02914 25.1947 7.02914 25.8605 8.71743L29.3382 17.5351C29.5415 18.0505 29.9495 18.4585 30.4649 18.6618L39.2826 22.1395C40.9709 22.8053 40.9709 25.1947 39.2826 25.8605L30.4649 29.3382C29.9495 29.5415 29.5415 29.9495 29.3382 30.4649L25.8605 39.2826C25.1947 40.9709 22.8053 40.9709 22.1395 39.2826L18.6618 30.4649C18.4585 29.9495 18.0505 29.5415 17.5351 29.3382L8.71743 25.8605C7.02914 25.1947 7.02914 22.8053 8.71743 22.1395L17.5351 18.6618C18.0505 18.4585 18.4585 18.0505 18.6618 17.5351L22.1395 8.71743Z" fill="#1D35E1"/>
</svg>
