<svg width="176" height="47" viewBox="0 0 176 47" fill="none" xmlns="http://www.w3.org/2000/svg">
<path d="M24.0927 9.66705V32.5795H19.9073V13.2989H7.99513V32.5795H3.7561V9.66705H24.0927Z" fill="#1D1D1B"/>
<path d="M45.4488 23.8205C45.4488 29.2682 41.6927 32.7932 36.5415 32.7932C34.2878 32.7932 32.3561 32.0455 30.9073 30.4432V38.8818H26.8293V15.1148H30.7464V17.4114C32.1415 15.7557 34.1805 14.9011 36.5415 14.9011C41.6927 14.9011 45.4488 18.4261 45.4488 23.8205ZM41.2634 23.8205C41.2634 20.5091 39.0098 18.3727 36.0586 18.3727C33.1073 18.3727 30.8537 20.5091 30.8537 23.8205C30.8537 27.1318 33.1073 29.2682 36.0586 29.2682C39.0098 29.2682 41.2634 27.1852 41.2634 23.8205Z" fill="#1D1D1B"/>
<path d="M44.7512 23.8205C44.7512 18.5864 48.6683 14.9011 54.0878 14.9011C59.561 14.9011 63.4244 18.5864 63.4244 23.8205C63.4244 29.0545 59.5073 32.7932 54.0878 32.7932C48.6683 32.7932 44.7512 29.0545 44.7512 23.8205ZM59.2927 23.8205C59.2927 20.5091 57.039 18.3727 54.0878 18.3727C51.1366 18.3727 48.8829 20.5091 48.8829 23.8205C48.8829 27.1318 51.1366 29.2682 54.0878 29.2682C57.039 29.3216 59.2927 27.1852 59.2927 23.8205Z" fill="#1D1D1B"/>
<path d="M93.2049 25.583H90.0391V32.5795H85.9073V15.1148H90.0391V22.1648H93.3122L98.4634 15.1148H102.863L96.5317 23.5L103.293 32.5795H98.4634L93.2049 25.583Z" fill="#1D1D1B"/>
<path d="M116.6 18.5864H110.429V32.5795H106.351V18.5864H100.18V15.1148H116.6V18.5864Z" fill="#1D1D1B"/>
<path d="M116.278 15.1148H120.41V26.5977L130.068 15.1148H133.824V32.5795H129.693V21.0432L120.088 32.5795H116.278V15.1148Z" fill="#1D1D1B"/>
<path d="M152.015 27.6659C152.015 30.7636 149.707 32.5795 144.985 32.5795H136.078V15.1148H144.663C148.956 15.1148 151.478 16.7705 151.478 19.6545C151.478 21.4705 150.459 22.8057 148.795 23.5C150.941 24.1409 152.015 25.5295 152.015 27.6659ZM139.941 22.4318H144.234C146.327 22.4318 147.4 21.6841 147.4 20.2421C147.4 18.8 146.327 18.1057 144.234 18.1057H139.941V22.4318ZM148.044 27.3989C148.044 25.85 147.024 25.1023 144.771 25.1023H139.941V29.5886H144.663C146.863 29.5886 148.044 28.8943 148.044 27.3989Z" fill="#1D1D1B"/>
<path d="M156.254 44.917C158.293 42.1398 159.312 38.4545 159.312 33.7011C159.312 28.2 161.244 24.8886 165.215 23.7136C161.298 22.5386 159.312 19.2273 159.312 13.7261C159.312 9.02613 158.293 5.2875 156.254 2.51022H162.478C164.517 5.23409 165.537 8.97272 165.537 13.7261C165.537 18.5864 167.2 21.0432 170.473 21.0432V26.4375C167.2 26.4375 165.537 28.8943 165.537 33.7545C165.537 38.4545 164.517 42.1932 162.478 44.9705L156.254 44.917Z" fill="#FF71E8"/>
<path d="M75.7658 9.66705H71.5805L61.2244 32.5795H65.6244L73.6195 13.9398L77.9658 23.9273H73.1366L71.7414 27.292H79.3609L80.2195 29.2148H70.9366L69.4878 32.5795H81.6683H82.5805H86.1219L75.7658 9.66705Z" fill="#1D1D1B"/>
</svg>
